<svg id="visual" viewBox="0 0 900 600" width="900" height="600" xmlns="http://www.w3.org/2000/svg" xmlns:xlink="http://www.w3.org/1999/xlink" version="1.1"><g transform="translate(443.58192013206315 314.90701297546906)"><path d="M246.8 -268.4C319.2 -233.4 376.7 -155 376.1 -78.2C375.6 -1.4 316.8 73.8 264.4 141.4C212 209 165.8 268.9 110 279.3C54.2 289.7 -11.4 250.6 -75.7 221.4C-139.9 192.1 -202.9 172.8 -257.7 125.6C-312.5 78.5 -359.1 3.5 -363 -79.6C-366.9 -162.6 -328.1 -253.7 -260.5 -289.6C-192.8 -325.5 -96.4 -306.2 -4.6 -300.8C87.2 -295.3 174.4 -303.5 246.8 -268.4" fill="#7D81E0"></path></g></svg>